<?xml version="1.0" standalone="no"?>
<!DOCTYPE svg PUBLIC "-//W3C//DTD SVG 20010904//EN"
 "http://www.w3.org/TR/2001/REC-SVG-20010904/DTD/svg10.dtd">
<svg version="1.0" xmlns="http://www.w3.org/2000/svg"
 width="180.000000pt" height="180.000000pt" viewBox="0 0 180.000000 180.000000"
 preserveAspectRatio="xMidYMid meet">
<metadata>
Created by potrace 1.14, written by Peter Selinger 2001-2017
</metadata>
<g transform="translate(0.000000,180.000000) scale(0.100000,-0.100000)"
fill="#000000" stroke="none">
<path d="M1031 1254 c-44 -30 -83 -54 -85 -54 -3 0 -6 21 -8 48 -4 69 -28 68
-137 -4 -47 -32 -88 -58 -91 -58 -3 -1 -5 15 -6 34 -3 80 -3 80 -29 80 -19 0
-215 -120 -253 -155 -6 -6 -3 -555 3 -565 4 -6 110 -10 288 -10 l282 0 50 36
50 35 3 -35 c5 -58 25 -54 164 39 l128 85 0 269 c0 148 -3 276 -6 285 -11 29
-47 17 -139 -44 l-90 -60 -3 59 c-4 81 -19 83 -121 15z m-368 -146 c19 -12 19
-12 116 52 50 33 94 60 96 60 3 0 5 -72 5 -159 0 -119 3 -163 13 -173 8 -7 57
-31 110 -53 l97 -40 0 -42 c0 -41 -2 -44 -62 -85 l-63 -43 -160 -3 c-88 -2
-202 -1 -252 3 l-93 7 0 239 0 238 88 59 87 59 3 -56 c2 -30 9 -59 15 -63z
m450 0 c19 -12 19 -12 121 57 l96 66 0 -238 0 -238 -88 -57 -87 -58 -5 98 -5
97 -102 44 -103 44 0 101 0 101 78 52 77 53 3 -57 c2 -32 9 -61 15 -65z"/>
</g>
</svg>
